<?xml version="1.0" encoding="utf-8"?>
<!-- Generator: Adobe Illustrator 27.0.1, SVG Export Plug-In . SVG Version: 6.00 Build 0)  -->
<svg version="1.1" id="Layer_1" xmlns="http://www.w3.org/2000/svg" xmlns:xlink="http://www.w3.org/1999/xlink" x="0px" y="0px"
	 viewBox="0 0 700 700" style="enable-background:new 0 0 700 700;" xml:space="preserve">
<g>
	<path d="M350,3.7C158.7,3.7,3.7,158.7,3.7,350c0,191.3,155.1,346.3,346.3,346.3c191.3,0,346.3-155,346.3-346.3
		C696.3,158.7,541.3,3.7,350,3.7L350,3.7z M314,273.8l-0.1,1.4c-0.5,32.3-11.4,49.3-34.2,53.5l-2.2,0.4v140l0.5,0.7
		c2.8,4.1,4.4,9.5,4.4,15.2v56.8c0,12-6.4,21.4-14.5,21.4c-8.1,0-14.5-9.4-14.5-21.4l0-56.8c0-5.8,1.6-11.1,4.4-15.2l0.5-0.7V329.3
		l-2.3-0.4c-23.6-3.8-34.9-20.8-35.5-53.7l-0.1-138.4h13.9v136h13.1v-136h13.8v136h13.3v-136h12.3v136h13.3v-136H314L314,273.8
		L314,273.8z M443.9,325.2l-1.5,0.7v136.2l0.4,0.7c2.9,4.4,4.5,10.3,4.5,16.5V540c0,12.5-6.7,23.1-14.6,23.1s-14.6-10.6-14.6-23.1
		v-60.8c0-6.2,1.6-12.1,4.5-16.5l0.4-0.7l0-136.2l-1.5-0.7c-21-10.5-35.6-48.7-35.6-92.8c0-52.7,21-95.5,46.8-95.5
		c25.8,0,46.8,42.9,46.8,95.5C479.5,276.5,464.9,314.7,443.9,325.2L443.9,325.2z"/>
</g>
</svg>
